# xmcd CD database file
#
# Track frame offsets:
#	150
#	15644
#	31770
#	44824
#	56545
#	74763
#	95510
#	118269
#	135370
#	154912
#	171891
#	184083
#	205763
#	220185
#	232352
#	253218
#
# Disc length: 3622 seconds
#
# Revision: 1
# Processed by: cddbd v1.4PL0 Copyright (c) Steve Scherf et al.
# Submitted via: CDex 1.50beta9
#
DISCID=f20e2410
DTITLE=Canal-Street Jazzband - 20 Years
DYEAR=1900
DGENRE=Jazz
TTITLE0=Canal Street Blues
TTITLE1=Cake Walking Babies
TTITLE2=Mood Time Swing
TTITLE3=Kansas City Men Blues
TTITLE4=Stomb Meeting
TTITLE5=Just A Little While To Stay Here
TTITLE6=Toot Toot Tootsie
TTITLE7=Under A Blanket Of Blue
TTITLE8=Big Butter And Eggman
TTITLE9=I've Found A New Baby
TTITLE10=Elephant Stomp
TTITLE11=Runnin' Wild
TTITLE12=11.10 Blues
TTITLE13=Red River Valley
TTITLE14=Hello, Dolly
TTITLE15=Sweet Sue, Just You
EXTD=
EXTT0=
EXTT1=
EXTT2=
EXTT3=
EXTT4=
EXTT5=
EXTT6=
EXTT7=
EXTT8=
EXTT9=
EXTT10=
EXTT11=
EXTT12=
EXTT13=
EXTT14=
EXTT15=
PLAYORDER=
